#Comment line ignore any data following # character 
#Hierarchical Translation and Rotation (.htr) file 
[Header]	
#Header keywords are followed by a single value 
FileType HTR		#Single word string
DataType HTRS		#Translation followed by rotation and scale data
FileVersion 1		#integer
NumSegments 84		#integer
NumFrames 2		#integer
DataFrameRate 30		#integer, data frame rate in this file
EulerRotationOrder ZYX
CalibrationUnits mm
RotationUnits Degrees
GlobalAxisofGravity Y
BoneLengthAxis Y
ScaleFactor 1.00
[SegmentNames&Hierarchy]
#CHILD	PARENT
MASTER GLOBAL
root MASTER
chest root
L_mid_tent01 root
R_mid_tent01 root
spine01 root
Bip01_Neck chest
L_humerus chest
R_humerus chest
weapon_bone chest
Bip01_Head Bip01_Neck
eye_left_bone Bip01_Head
eye_right_bone Bip01_Head
L_forearm L_humerus
L_front_hand L_forearm
L_weapon_bone L_forearm
L_front_hand01_01 L_front_hand
L_front_hand02_01 L_front_hand
L_front_hand03_01 L_front_hand
L_front_hand01_02 L_front_hand01_01
L_front_hand02_02 L_front_hand02_01
L_front_hand03_02 L_front_hand03_01
R_forearm R_humerus
R_front_hand R_forearm
R_weapon_bone R_forearm
R_front_hand01_01 R_front_hand
R_front_hand02_01 R_front_hand
R_front_hand03_01 R_front_hand
R_front_hand01_02 R_front_hand01_01
R_front_hand02_02 R_front_hand02_01
R_front_hand03_02 R_front_hand03_01
null_rope01_connect L_mid_tent01
Rope1_Seg01 null_rope01_connect
Rope1_Seg02 Rope1_Seg01
Rope1_Seg03 Rope1_Seg02
Rope1_Seg04 Rope1_Seg03
Rope1_Seg05 Rope1_Seg04
Rope1_Seg06 Rope1_Seg05
Rope1_Seg07 Rope1_Seg06
Rope1_Seg09 Rope1_Seg07
L_mid_hand01 Rope1_Seg09
L_mid_hand02 Rope1_Seg09
L_mid_hand03 Rope1_Seg09
null_rope02_connect R_mid_tent01
Rope2_Seg01 null_rope02_connect
Rope2_Seg02 Rope2_Seg01
Rope2_Seg03 Rope2_Seg02
Rope2_Seg04 Rope2_Seg03
Rope2_Seg05 Rope2_Seg04
Rope2_Seg06 Rope2_Seg05
Rope2_Seg07 Rope2_Seg06
Rope2_Seg09 Rope2_Seg07
R_mid_hand01 Rope2_Seg09
R_mid_hand02 Rope2_Seg09
R_mid_hand03 Rope2_Seg09
spine02 spine01
spine03 spine02
pelvis spine03
null_rope03_connect pelvis
null_rope04_connect pelvis
Rope3_Seg01 null_rope03_connect
Rope3_Seg02 Rope3_Seg01
Rope3_Seg03 Rope3_Seg02
Rope3_Seg04 Rope3_Seg03
Rope3_Seg05 Rope3_Seg04
Rope3_Seg06 Rope3_Seg05
Rope3_Seg07 Rope3_Seg06
Rope3_Seg08 Rope3_Seg07
Rope3_Seg09 Rope3_Seg08
R_rear_hand01 Rope3_Seg09
R_rear_hand02 Rope3_Seg09
R_rear_hand03 Rope3_Seg09
Rope4_Seg01 null_rope04_connect
Rope4_Seg02 Rope4_Seg01
Rope4_Seg03 Rope4_Seg02
Rope4_Seg04 Rope4_Seg03
Rope4_Seg05 Rope4_Seg04
Rope4_Seg06 Rope4_Seg05
Rope4_Seg07 Rope4_Seg06
Rope4_Seg08 Rope4_Seg07
Rope4_Seg09 Rope4_Seg08
L_rear_hand01 Rope4_Seg09
L_rear_hand02 Rope4_Seg09
L_rear_hand03 Rope4_Seg09
[BasePosition]
#SegmentName Tx, Ty, Tz, Rx, Ry, Rz, BoneLength
MASTER 0.000000 0.000000 0.000000 -90.000000 0.000000 0.000000 10.000000 
root 0.000000 0.000000 0.000000 0.000000 0.000000 0.000000 10.000000 
chest 0.000000 0.000000 0.000000 0.000000 0.000000 0.000000 10.000000 
L_mid_tent01 0.000000 0.000000 0.000000 0.000000 0.000000 0.000000 10.000000 
R_mid_tent01 0.000000 0.000000 0.000000 0.000000 0.000000 0.000000 10.000000 
spine01 0.000000 0.000000 0.000000 0.000000 0.000000 0.000000 10.000000 
Bip01_Neck 0.000000 0.000000 0.000000 0.000000 0.000000 0.000000 10.000000 
L_humerus 0.000000 0.000000 0.000000 0.000000 0.000000 0.000000 10.000000 
R_humerus 0.000000 0.000000 0.000000 0.000000 0.000000 0.000000 10.000000 
weapon_bone 0.000000 0.000000 0.000000 0.000000 0.000000 0.000000 10.000000 
Bip01_Head 0.000000 0.000000 0.000000 0.000000 0.000000 0.000000 10.000000 
eye_left_bone 0.000000 0.000000 0.000000 0.000000 0.000000 0.000000 10.000000 
eye_right_bone 0.000000 0.000000 0.000000 0.000000 0.000000 0.000000 10.000000 
L_forearm 0.000000 0.000000 0.000000 0.000000 0.000000 0.000000 10.000000 
L_front_hand 0.000000 0.000000 0.000000 0.000000 0.000000 0.000000 10.000000 
L_weapon_bone 0.000000 0.000000 0.000000 0.000000 0.000000 0.000000 10.000000 
L_front_hand01_01 0.000000 0.000000 0.000000 0.000000 0.000000 0.000000 10.000000 
L_front_hand02_01 0.000000 0.000000 0.000000 0.000000 0.000000 0.000000 10.000000 
L_front_hand03_01 0.000000 0.000000 0.000000 0.000000 0.000000 0.000000 10.000000 
L_front_hand01_02 0.000000 0.000000 0.000000 0.000000 0.000000 0.000000 10.000000 
L_front_hand02_02 0.000000 0.000000 0.000000 0.000000 0.000000 0.000000 10.000000 
L_front_hand03_02 0.000000 0.000000 0.000000 0.000000 0.000000 0.000000 10.000000 
R_forearm 0.000000 0.000000 0.000000 0.000000 0.000000 0.000000 10.000000 
R_front_hand 0.000000 0.000000 0.000000 0.000000 0.000000 0.000000 10.000000 
R_weapon_bone 0.000000 0.000000 0.000000 0.000000 0.000000 0.000000 10.000000 
R_front_hand01_01 0.000000 0.000000 0.000000 0.000000 0.000000 0.000000 10.000000 
R_front_hand02_01 0.000000 0.000000 0.000000 0.000000 0.000000 0.000000 10.000000 
R_front_hand03_01 0.000000 0.000000 0.000000 0.000000 0.000000 0.000000 10.000000 
R_front_hand01_02 0.000000 0.000000 0.000000 0.000000 0.000000 0.000000 10.000000 
R_front_hand02_02 0.000000 0.000000 0.000000 0.000000 0.000000 0.000000 10.000000 
R_front_hand03_02 0.000000 0.000000 0.000000 0.000000 0.000000 0.000000 10.000000 
null_rope01_connect 0.000000 0.000000 0.000000 0.000000 0.000000 0.000000 10.000000 
Rope1_Seg01 0.000000 0.000000 0.000000 0.000000 0.000000 0.000000 10.000000 
Rope1_Seg02 0.000000 0.000000 0.000000 0.000000 0.000000 0.000000 10.000000 
Rope1_Seg03 0.000000 0.000000 0.000000 0.000000 0.000000 0.000000 10.000000 
Rope1_Seg04 0.000000 0.000000 0.000000 0.000000 0.000000 0.000000 10.000000 
Rope1_Seg05 0.000000 0.000000 0.000000 0.000000 0.000000 0.000000 10.000000 
Rope1_Seg06 0.000000 0.000000 0.000000 0.000000 0.000000 0.000000 10.000000 
Rope1_Seg07 0.000000 0.000000 0.000000 0.000000 0.000000 0.000000 10.000000 
Rope1_Seg09 0.000000 0.000000 0.000000 0.000000 0.000000 0.000000 10.000000 
L_mid_hand01 0.000000 0.000000 0.000000 0.000000 0.000000 0.000000 10.000000 
L_mid_hand02 0.000000 0.000000 0.000000 0.000000 0.000000 0.000000 10.000000 
L_mid_hand03 0.000000 0.000000 0.000000 0.000000 0.000000 0.000000 10.000000 
null_rope02_connect 0.000000 0.000000 0.000000 0.000000 0.000000 0.000000 10.000000 
Rope2_Seg01 0.000000 0.000000 0.000000 0.000000 0.000000 0.000000 10.000000 
Rope2_Seg02 0.000000 0.000000 0.000000 0.000000 0.000000 0.000000 10.000000 
Rope2_Seg03 0.000000 0.000000 0.000000 0.000000 0.000000 0.000000 10.000000 
Rope2_Seg04 0.000000 0.000000 0.000000 0.000000 0.000000 0.000000 10.000000 
Rope2_Seg05 0.000000 0.000000 0.000000 0.000000 0.000000 0.000000 10.000000 
Rope2_Seg06 0.000000 0.000000 0.000000 0.000000 0.000000 0.000000 10.000000 
Rope2_Seg07 0.000000 0.000000 0.000000 0.000000 0.000000 0.000000 10.000000 
Rope2_Seg09 0.000000 0.000000 0.000000 0.000000 0.000000 0.000000 10.000000 
R_mid_hand01 0.000000 0.000000 0.000000 0.000000 0.000000 0.000000 10.000000 
R_mid_hand02 0.000000 0.000000 0.000000 0.000000 0.000000 0.000000 10.000000 
R_mid_hand03 0.000000 0.000000 0.000000 0.000000 0.000000 0.000000 10.000000 
spine02 0.000000 0.000000 0.000000 0.000000 0.000000 0.000000 10.000000 
spine03 0.000000 0.000000 0.000000 0.000000 0.000000 0.000000 10.000000 
pelvis 0.000000 0.000000 0.000000 0.000000 0.000000 0.000000 10.000000 
null_rope03_connect 0.000000 0.000000 0.000000 0.000000 0.000000 0.000000 10.000000 
null_rope04_connect 0.000000 0.000000 0.000000 0.000000 0.000000 0.000000 10.000000 
Rope3_Seg01 0.000000 0.000000 0.000000 0.000000 0.000000 0.000000 10.000000 
Rope3_Seg02 0.000000 0.000000 0.000000 0.000000 0.000000 0.000000 10.000000 
Rope3_Seg03 0.000000 0.000000 0.000000 0.000000 0.000000 0.000000 10.000000 
Rope3_Seg04 0.000000 0.000000 0.000000 0.000000 0.000000 0.000000 10.000000 
Rope3_Seg05 0.000000 0.000000 0.000000 0.000000 0.000000 0.000000 10.000000 
Rope3_Seg06 0.000000 0.000000 0.000000 0.000000 0.000000 0.000000 10.000000 
Rope3_Seg07 0.000000 0.000000 0.000000 0.000000 0.000000 0.000000 10.000000 
Rope3_Seg08 0.000000 0.000000 0.000000 0.000000 0.000000 0.000000 10.000000 
Rope3_Seg09 0.000000 0.000000 0.000000 0.000000 0.000000 0.000000 10.000000 
R_rear_hand01 0.000000 0.000000 0.000000 0.000000 0.000000 0.000000 10.000000 
R_rear_hand02 0.000000 0.000000 0.000000 0.000000 0.000000 0.000000 10.000000 
R_rear_hand03 0.000000 0.000000 0.000000 0.000000 0.000000 0.000000 10.000000 
Rope4_Seg01 0.000000 0.000000 0.000000 0.000000 0.000000 0.000000 10.000000 
Rope4_Seg02 0.000000 0.000000 0.000000 0.000000 0.000000 0.000000 10.000000 
Rope4_Seg03 0.000000 0.000000 0.000000 0.000000 0.000000 0.000000 10.000000 
Rope4_Seg04 0.000000 0.000000 0.000000 0.000000 0.000000 0.000000 10.000000 
Rope4_Seg05 0.000000 0.000000 0.000000 0.000000 0.000000 0.000000 10.000000 
Rope4_Seg06 0.000000 0.000000 0.000000 0.000000 0.000000 0.000000 10.000000 
Rope4_Seg07 0.000000 0.000000 0.000000 0.000000 0.000000 0.000000 10.000000 
Rope4_Seg08 0.000000 0.000000 0.000000 0.000000 0.000000 0.000000 10.000000 
Rope4_Seg09 0.000000 0.000000 0.000000 0.000000 0.000000 0.000000 10.000000 
L_rear_hand01 0.000000 0.000000 0.000000 0.000000 0.000000 0.000000 10.000000 
L_rear_hand02 0.000000 0.000000 0.000000 0.000000 0.000000 0.000000 10.000000 
L_rear_hand03 0.000000 0.000000 0.000000 0.000000 0.000000 0.000000 10.000000 
#Beginning of Data. Separated by tabs
#Fr	Tx	Ty	Tz	Rx	Ry	Rz	SF
[MASTER]
51 0.000000 0.000000 0.000000 0.001660 0.001660 0.001660 0.000000
52 0.000000 0.000000 0.000000 0.001660 0.001660 0.001660 0.000000
[root]
51 -17.808544 -55.147663 1598.947876 -108.247635 19.583227 -89.246780 1599.997681
52 -19.144859 -55.885239 1596.675049 -108.305428 20.117968 -89.431938 1597.767456
[chest]
51 -86.836594 -33.005978 -30.127228 -2.145468 -9.217001 -178.910614 97.660828
52 -86.836594 -33.005978 -30.127226 -2.145468 -9.217001 -178.910614 97.660828
[L_mid_tent01]
51 27.299473 22.177580 -249.918289 -5.042322 3.804104 71.863152 252.381180
52 27.299473 22.177580 -249.918289 -5.230239 3.381957 71.462975 252.381180
[R_mid_tent01]
51 23.228794 24.509907 226.238495 -176.100739 -13.226061 65.821388 228.744751
52 23.228794 24.509907 226.238495 -176.106171 -12.858460 65.847183 228.744751
[spine01]
51 -0.361383 -0.195265 0.000000 -0.000001 -0.000007 22.052340 0.410763
52 -0.361383 -0.195265 0.000000 -0.000001 -0.000007 22.052340 0.410763
[Bip01_Neck]
51 165.484543 71.581718 0.000119 175.896118 1.177290 24.871183 180.302734
52 165.484543 71.581718 0.000119 175.896118 1.177290 24.871183 180.302734
[L_humerus]
51 -13.983130 -135.272980 -120.471481 -168.517593 36.033752 -113.483025 181.680161
52 -13.983130 -135.272980 -120.471481 -168.517593 36.033752 -113.483025 181.680161
[R_humerus]
51 -13.983309 -135.273102 125.287651 -179.588654 -28.895136 -122.030510 184.909012
52 -13.983309 -135.273102 125.287651 -179.588654 -28.895136 -122.030510 184.909012
[weapon_bone]
51 235.964890 -300.705902 0.000000 0.000000 -89.951546 -128.212341 382.234833
52 235.964890 -300.705902 0.000000 0.000000 -89.951546 -128.212341 382.234833
[Bip01_Head]
51 189.519958 179.130234 22.124926 -23.626308 5.787232 14.654979 261.715424
52 189.519958 179.130234 22.124926 -23.626308 5.787232 14.654979 261.715424
[eye_left_bone]
51 -24.626970 125.451866 -64.772606 0.000000 -90.000000 -99.840431 143.318359
52 -24.626970 125.451866 -64.772606 0.000000 -90.000000 -99.840431 143.318359
[eye_right_bone]
51 -24.626970 125.451866 64.327362 0.000000 -89.965736 80.156380 143.117676
52 -24.626970 125.451866 64.327362 0.000000 -89.965736 80.156380 143.117676
[L_forearm]
51 322.776093 0.000000 -0.000119 0.000017 0.002347 -89.149834 322.776093
52 322.776093 0.000000 -0.000119 0.000017 0.002347 -89.149834 322.776093
[L_front_hand]
51 241.149185 -0.042021 -3.300071 131.869324 -2.242147 -0.021400 241.171753
52 241.149185 -0.042021 -3.300071 -179.660446 -2.242151 -0.019832 241.171753
[L_weapon_bone]
51 156.183838 0.000000 0.000000 0.000014 0.000007 0.000001 156.183838
52 156.183838 0.000000 0.000000 0.000014 0.000007 0.000001 156.183838
[L_front_hand01_01]
51 86.095154 20.947098 -0.655860 -0.366594 -0.477154 75.385574 88.609184
52 86.095154 20.947098 -0.655860 -0.366594 -0.477154 75.385574 88.609184
[L_front_hand02_01]
51 86.935165 -11.437475 24.513514 154.399796 -59.883835 -61.369587 91.046425
52 86.935165 -11.437475 24.513514 154.399796 -59.883835 -61.369587 91.046425
[L_front_hand03_01]
51 86.637497 -14.123976 -20.424902 -153.913849 58.118122 -62.702866 90.126129
52 86.637497 -14.123976 -20.424902 -153.913879 58.118130 -62.702892 90.126129
[L_front_hand01_02]
51 71.020905 -0.000179 0.000030 0.000334 -0.002323 -106.379684 71.020905
52 71.020905 -0.000179 0.000030 0.000334 -0.002323 -106.379684 71.020905
[L_front_hand02_02]
51 71.020927 -0.000119 0.000060 0.000334 -0.002323 -106.379684 71.020927
52 71.020927 -0.000119 0.000060 0.000334 -0.002323 -106.379684 71.020927
[L_front_hand03_02]
51 71.020905 -0.000060 0.000060 0.000334 -0.002323 -106.379684 71.020905
52 71.020905 -0.000060 0.000060 0.000334 -0.002323 -106.379684 71.020905
[R_forearm]
51 322.776428 -0.000060 0.000030 0.213197 0.007525 -93.425270 322.776428
52 322.776428 -0.000060 0.000030 0.213197 0.007525 -93.425262 322.776428
[R_front_hand]
51 238.847015 -0.006795 2.210259 -0.270529 1.703932 2.322531 238.857239
52 238.847015 -0.006795 2.210259 -0.270529 1.703932 2.322530 238.857239
[R_weapon_bone]
51 155.664093 0.002503 -0.000030 0.003487 0.001180 -90.988930 155.664078
52 155.664093 0.002503 -0.000030 0.003487 0.001180 -90.988930 155.664078
[R_front_hand01_01]
51 87.624611 14.231146 22.918642 -154.633514 -59.950634 61.746063 91.683487
52 87.624611 14.231146 22.918642 -154.633499 -59.950619 61.746044 91.683487
[R_front_hand02_01]
51 89.356956 14.367283 -19.491137 154.602661 58.302849 63.744389 92.579636
52 89.356956 14.367283 -19.491137 154.602661 58.302849 63.744389 92.579636
[R_front_hand03_01]
51 87.286232 -22.307278 -0.143439 0.162155 -0.423168 -75.767921 90.091743
52 87.286232 -22.307278 -0.143439 0.162155 -0.423168 -75.767921 90.091743
[R_front_hand01_02]
51 71.020905 0.000060 0.000119 0.002323 -0.000334 106.381714 71.020905
52 71.020905 0.000060 0.000119 0.002323 -0.000334 106.381714 71.020905
[R_front_hand02_02]
51 71.020844 -0.000030 -0.000119 0.002323 -0.000334 106.381714 71.020836
52 71.020844 -0.000030 -0.000119 0.002323 -0.000334 106.381714 71.020836
[R_front_hand03_02]
51 71.020905 0.000000 0.000030 0.002323 -0.000334 106.381714 71.020905
52 71.020905 0.000000 0.000030 0.002323 -0.000334 106.381714 71.020905
[null_rope01_connect]
51 328.732483 0.000000 -0.000238 149.933182 -65.939400 -151.991699 328.732483
52 328.732483 0.000000 -0.000238 148.964798 -66.233841 -151.243805 328.732483
[Rope1_Seg01]
51 0.000000 0.000000 0.000000 162.080383 48.159828 -158.903412 0.000000
52 0.000000 0.000000 0.000000 159.980698 48.257141 -160.988480 0.000000
[Rope1_Seg02]
51 139.999863 -0.000179 0.000000 9.921760 -2.261353 -7.856747 139.999863
52 139.999863 -0.000179 0.000000 9.462327 -1.761974 -8.255805 139.999863
[Rope1_Seg03]
51 139.999924 0.000060 -0.000060 16.794374 -5.449550 -9.635574 139.999924
52 139.999924 0.000060 -0.000060 16.750185 -4.728416 -10.307163 139.999924
[Rope1_Seg04]
51 139.999924 -0.000060 -0.000119 24.862669 -14.738990 -10.154607 139.999924
52 139.999924 -0.000060 -0.000119 26.677282 -13.729047 -11.611866 139.999924
[Rope1_Seg05]
51 139.999832 0.000119 -0.000060 7.563122 2.772439 -10.196267 139.999832
52 139.999832 0.000119 -0.000060 7.576060 2.259417 -9.293486 139.999832
[Rope1_Seg06]
51 139.999954 0.000119 -0.000060 0.530191 6.797263 -8.233101 139.999954
52 139.999954 0.000119 -0.000060 -1.162950 6.741632 -7.205962 139.999954
[Rope1_Seg07]
51 139.999985 0.000060 0.000000 4.792357 1.361739 -3.580848 139.999985
52 139.999985 0.000060 0.000000 3.721682 1.421384 -3.214105 139.999985
[Rope1_Seg09]
51 121.602913 0.000119 -0.000089 -89.793175 -1.359789 0.847147 121.602913
52 121.602913 0.000119 -0.000089 -89.793175 -1.359789 0.847147 121.602913
[L_mid_hand01]
51 103.859421 1.038730 8.195221 106.855484 -31.239275 -9.461397 104.187431
52 103.859421 1.038730 8.195221 106.855484 -31.239275 -9.461397 104.187431
[L_mid_hand02]
51 105.572853 -4.139662 -10.864139 -142.331345 25.752670 -28.774628 106.211075
52 105.572853 -4.139662 -10.864139 -142.331345 25.752670 -28.774628 106.211075
[L_mid_hand03]
51 104.641464 17.579376 -3.913581 -16.122810 9.734291 34.223598 106.179977
52 104.641464 17.579376 -3.913581 -16.122810 9.734291 34.223598 106.179977
[null_rope02_connect]
51 328.732849 0.000179 -0.000119 -46.958431 84.549606 129.159241 328.732849
52 328.732849 0.000179 -0.000119 -42.936096 84.375206 133.724197 328.732849
[Rope2_Seg01]
51 0.000076 0.000112 0.000153 63.066532 80.912560 177.857880 0.000204
52 0.000076 0.000112 0.000153 59.964916 80.638252 174.662994 0.000204
[Rope2_Seg02]
51 139.999741 -0.000060 -0.000119 -1.865674 9.355035 4.917745 139.999756
52 139.999741 -0.000060 -0.000119 -1.803391 9.588535 4.803211 139.999756
[Rope2_Seg03]
51 140.000107 0.000030 0.000000 -4.684303 13.546433 8.786449 140.000107
52 140.000107 0.000030 0.000000 -4.746017 14.161008 8.677124 140.000107
[Rope2_Seg04]
51 139.999802 0.000000 -0.000060 -7.414179 13.362981 9.459847 139.999802
52 139.999802 0.000000 -0.000060 -7.667126 13.828284 9.354815 139.999802
[Rope2_Seg05]
51 139.999985 -0.000060 0.000119 2.149320 1.658360 -4.138537 139.999985
52 139.999985 -0.000060 0.000119 2.176262 1.249022 -3.910662 139.999985
[Rope2_Seg06]
51 139.999893 -0.000030 -0.000119 0.601389 1.374974 -1.549199 139.999893
52 139.999893 -0.000030 -0.000119 0.471914 1.268323 -1.308796 139.999893
[Rope2_Seg07]
51 139.999893 0.000060 -0.000060 -0.024109 1.188539 -0.577272 139.999893
52 139.999893 0.000060 -0.000060 -0.075479 1.112508 -0.473886 139.999893
[Rope2_Seg09]
51 121.338966 0.000089 -0.000060 33.793236 -1.359788 -0.847141 121.338966
52 121.338966 0.000089 -0.000060 33.793236 -1.359788 -0.847141 121.338966
[R_mid_hand01]
51 104.680779 11.144459 -10.335981 -41.523792 25.424656 28.595957 105.778534
52 104.680779 11.144459 -10.335981 -41.523792 25.424656 28.595957 105.778534
[R_mid_hand02]
51 104.070427 2.443552 8.231699 72.847389 -32.746803 10.013901 104.424065
52 104.070427 2.443552 8.231699 72.847389 -32.746803 10.013901 104.424065
[R_mid_hand03]
51 106.028137 -11.221827 -5.996406 -167.901306 10.259192 -37.009720 106.788818
52 106.028137 -11.221827 -5.996406 -167.901306 10.259192 -37.009720 106.788818
[spine02]
51 129.756927 0.001550 0.000119 -0.245322 -4.052060 -4.355547 129.756927
52 129.756927 0.001550 0.000119 -0.245322 -4.052060 -4.355547 129.756927
[spine03]
51 78.613846 0.087372 -4.898873 0.207412 -2.089717 -0.432471 78.766380
52 78.613846 0.087372 -4.898873 0.207412 -2.089717 -0.432471 78.766380
[pelvis]
51 169.435242 0.051022 0.000000 -0.010007 -0.191417 -1.897554 169.435257
52 169.435242 0.051022 0.000000 -0.010007 -0.191417 -1.897554 169.435257
[null_rope03_connect]
51 -1.257226 -2.466202 137.391083 138.047272 -72.070396 -83.884315 137.418976
52 -1.257226 -2.466202 137.391083 138.010132 -72.133781 -84.405556 137.418976
[null_rope04_connect]
51 -1.259640 -2.480268 -137.844437 138.047272 -72.070396 -83.884315 137.872513
52 -1.259640 -2.480268 -137.844437 138.010132 -72.133781 -84.405556 137.872513
[Rope3_Seg01]
51 0.000000 0.000000 0.000000 157.209244 71.694969 -138.028809 0.000000
52 0.000000 0.000000 0.000000 155.997467 71.464966 -139.187561 0.000000
[Rope3_Seg02]
51 139.999924 -0.000119 0.000060 7.002473 10.981531 -2.836707 139.999924
52 139.999924 -0.000119 0.000060 7.294404 11.280065 -2.773311 139.999924
[Rope3_Seg03]
51 139.999924 -0.000119 0.000119 13.177558 18.235901 -5.578384 139.999924
52 139.999924 -0.000119 0.000119 13.710001 18.551228 -5.475461 139.999924
[Rope3_Seg04]
51 139.999924 0.000119 0.000000 14.863720 18.886377 -11.605742 139.999924
52 139.999924 0.000119 0.000000 15.055832 18.562208 -11.517044 139.999924
[Rope3_Seg05]
51 139.999924 -0.000238 0.000060 -8.246541 -18.057360 -0.136678 139.999924
52 139.999924 -0.000238 0.000060 -7.789175 -17.616423 -0.956569 139.999924
[Rope3_Seg06]
51 139.999893 -0.000119 -0.000060 -3.714292 -15.525017 -1.234797 139.999893
52 139.999893 -0.000119 -0.000060 -3.439831 -15.019356 -1.790679 139.999893
[Rope3_Seg07]
51 139.999771 0.000060 -0.000119 -0.389573 -7.589458 -2.173351 139.999771
52 139.999771 0.000060 -0.000119 -0.316195 -7.361174 -2.456149 139.999771
[Rope3_Seg08]
51 139.999985 -0.000060 0.000000 0.245156 -4.283184 -1.261319 139.999985
52 139.999985 -0.000060 0.000000 0.268664 -4.201761 -1.431904 139.999985
[Rope3_Seg09]
51 90.185997 -0.000179 -0.000060 89.793228 -1.359877 -0.847183 90.185997
52 90.185997 -0.000179 -0.000060 89.793228 -1.359877 -0.847183 90.185997
[R_rear_hand01]
51 103.366196 -6.073594 -10.757982 -161.551193 16.666374 -30.088671 104.101845
52 103.366196 -6.073594 -10.757982 -161.551193 16.666374 -30.088671 104.101845
[R_rear_hand02]
51 100.509819 12.039542 -7.992327 -34.280552 19.289745 28.875523 101.543350
52 100.509819 12.039542 -7.992327 -34.280552 19.289745 28.875523 101.543350
[R_rear_hand03]
51 101.539970 5.215704 5.435467 83.366440 -30.933914 7.284830 101.819031
52 101.539970 5.215704 5.435467 83.366440 -30.933914 7.284830 101.819031
[Rope4_Seg01]
51 0.000010 0.000038 -0.000114 6.272376 59.557022 -157.767944 0.000121
52 0.000010 0.000038 -0.000114 4.392878 59.773350 -159.765366 0.000121
[Rope4_Seg02]
51 139.999985 0.000060 0.000119 1.148773 -0.861588 9.827996 139.999985
52 139.999985 0.000060 0.000119 1.248401 -1.285628 10.115998 139.999985
[Rope4_Seg03]
51 139.999924 0.000000 -0.000238 0.539868 -1.812254 13.787188 139.999924
52 139.999924 0.000000 -0.000238 0.674578 -2.325086 14.176974 139.999924
[Rope4_Seg04]
51 139.999985 0.000000 0.000119 -0.432397 -1.059171 12.976844 139.999985
52 139.999985 0.000000 0.000119 -0.343266 -1.730293 13.865438 139.999985
[Rope4_Seg05]
51 139.999802 -0.000060 -0.000119 0.564640 6.177613 -6.291031 139.999802
52 139.999802 -0.000060 -0.000119 0.422162 6.287301 -6.065466 139.999802
[Rope4_Seg06]
51 139.999924 0.000000 0.000060 0.827088 4.705755 -5.354493 139.999924
52 139.999924 0.000000 0.000060 0.778157 5.154040 -5.872237 139.999924
[Rope4_Seg07]
51 139.999802 0.000000 0.000000 0.663066 2.927032 -2.519624 139.999802
52 139.999802 0.000000 0.000000 0.652279 3.142263 -2.682113 139.999802
[Rope4_Seg08]
51 139.999924 0.000000 0.000119 -1.057364 1.802310 -1.597900 139.999924
52 139.999924 0.000000 0.000119 -1.044456 1.990834 -1.744584 139.999924
[Rope4_Seg09]
51 90.185791 0.000060 0.000060 -135.617828 2.228885 0.850567 90.185791
52 90.185791 0.000060 0.000060 -135.617828 2.228885 0.850567 90.185791
[L_rear_hand01]
51 101.696655 -8.392275 -7.654577 -34.454281 -18.946800 151.655121 102.329041
52 101.696655 -8.392275 -7.654577 -34.454281 -18.946800 151.655121 102.329041
[L_rear_hand02]
51 102.726799 -1.568258 5.773216 83.407906 30.330435 172.796509 102.900848
52 102.726799 -1.568258 5.773216 83.407906 30.330435 172.796509 102.900848
[L_rear_hand03]
51 104.552910 9.721220 -10.420293 -161.379868 -16.473232 -150.512238 105.519653
52 104.552910 9.721220 -10.420293 -161.379868 -16.473232 -150.512238 105.519653
